<svg width="310" height="505" xmlns="http://www.w3.org/2000/svg">
 <defs>
  <clipPath id="a">
   <rect id="svg_1" fill="none" height="505" width="310" class="a"/>
  </clipPath>
  <filter height="200%" width="200%" y="-50%" x="-50%" id="svg_2_blur">
   <feGaussianBlur stdDeviation="1.4" in="SourceGraphic"/>
  </filter>
 </defs>
 <title>head</title>
 <g>
  <title>Layer 1</title>
  <g filter="url(#svg_2_blur)" opacity="0.32" id="svg_2" clip-path="url(#a)" class="b">
   <g id="svg_3" opacity="0.7" class="c">
    <path id="svg_4" fill-rule="evenodd" fill="#454545" d="m99.17,391.42c0.15,-17.66 9.1,-36.12 26,-42.33c-0.6,0 -1.22,0 -1.83,0a42.12,42.12 0 0 0 -17.94,4.11c-20.12,9.69 -23.87,35.43 -17,54.66c5.77,16.13 20.08,28.11 37.37,37.09c-18.34,-15.61 -26.77,-31.13 -26.6,-53.53zm88.26,58.12c2.77,17.14 3.73,19.3 -37.31,8.41a285,285 0 0 0 32.68,10.5c12.23,3.28 13.55,-0.89 8.94,-10.62c-0.99,-2.11 -4.31,-8.28 -4.31,-8.28l0,-0.01zm10.35,-111.66c0.93,-1.18 0.7,-1.61 0.1,-2.83a29.18,29.18 0 0 0 -6.77,-8.74a19.22,19.22 0 0 0 -11.11,-4.73c-4.86,-0.39 -6.83,0.7 -10.54,3.5c-2.87,2.17 -6.46,5.28 -7.17,7.9c-0.47,1.79 0.29,2.25 2,2.33c8,0.37 15.44,16.9 28.88,7a24.77,24.77 0 0 0 4.61,-4.43zm-15,2a16,16 0 0 1 -4.2,-2.14c-2.15,-1.5 -5.54,-3.42 -6.73,-5.34c-0.89,-1.44 1.23,-2.49 2.06,-3.1c3.66,-2.71 7,-3.47 9,-1.82a33,33 0 0 1 5.12,5.49c3.72,4.89 -1.03,8.03 -5.2,6.89l-0.05,0.02zm19.85,75.58c5.72,2.15 13.5,2.58 14.2,-1.62c-3.27,-0.29 -9.57,-1.09 -11.66,-5.31a1.4,1.4 0 0 0 -1.05,-1c-3.29,-1.4 -5.18,-1.59 -6.17,0.2a3.46,3.46 0 0 0 0.13,3.66a8.76,8.76 0 0 0 4.59,4.05l-0.04,0.02zm-48.55,90.24c-0.11,-2.8 -0.05,-16.25 11.19,-22.58l0.85,0.23c5.47,2.41 42,18.15 55.58,14.76c-0.84,-0.34 -2.69,-1.54 -2.54,-3.15c0,0 12,2.32 15.07,-0.51a3.49,3.49 0 0 1 -3.23,-1.85s8.84,-0.67 11.92,-3.76c0,0 -7.66,-13.8 -8.38,-29.31l-0.27,0.55a22.35,22.35 0 0 0 -2,-6.14c-4.76,-9.39 -6.36,-19.53 -5.88,-30a112.86,112.86 0 0 1 1.11,-12.08a41.85,41.85 0 0 1 1.83,-7.59a38,38 0 0 0 1.89,-5.72a17.15,17.15 0 0 0 -1.84,-11.1a27.58,27.58 0 0 0 8.13,-10.33c3.73,-7.8 2,-17 -2.86,-23.9a11.15,11.15 0 0 0 1.74,-6.22c-11.15,-3.65 -17.41,-17.61 -20.18,-35q-1.54,-9.75 -3.41,-19.45c-2.28,-11.8 -5.71,-28.54 -11.62,-39c-2.24,-4 -4.53,-8.19 -9.07,-12.16c-5.3,-4.63 -6.81,-5 -6.81,-5s8.21,-38.4 58.39,-81.82c35.32,-30.56 60.69,-36.38 60.69,-36.38s-3.92,-4.94 -5.06,-6.29c-12.73,-15.01 -27.32,-29.58 -40.54,-40.17c-92.59,-74.25 -210.56,-85.6 -307.91,-29.6a285.53,285.53 0 0 0 -98.48,93.87c-48,74.53 -54.83,161.88 -20.77,267l2.91,8.94c4.06,12.48 7.9,24.28 11.11,35.45c5.75,19.93 10,44.43 8.55,60.92a76.42,76.42 0 0 0 -13.13,25.76c-11.29,38.85 4.25,85.86 38.68,117l16.5,14.93l-10.39,-19.67c-0.46,-0.86 -45.25,-86.93 -2.9,-116.73c13.93,-9.81 31.24,-10.61 46.32,-2.18c24.85,13.91 38.05,48.1 35.32,91.45c-7,111.3 66.2,150.1 76.31,151.32l11.62,1.39l-8.43,-8.12c-55.32,-53.27 -50.61,-100.72 -46.09,-146.62c3.61,-36.41 7,-70.79 -17.72,-106.21c-8.5,-12.17 -19.11,-21 -31.22,-26.31c0.63,0 1.26,-0.09 1.8,-0.17c16.27,-4 67.65,-19 96.68,2.22c52.63,38.46 67.65,20.3 67.65,20.3s20.89,-27.58 26.22,-29.94c0.85,-0.37 9.73,2.79 11.55,3.36c-3.46,6.54 -8.39,18.57 -9.73,31.23c0,0 13.2,2.61 18.64,4.05c35.27,9.36 61,33.17 72.79,103l0.17,0.63c5.13,14.69 7.21,32.24 6.17,52.18c-11.86,9 -18.54,22.09 -25.59,35.91c-4.34,8.5 -8.82,17.29 -14.76,25.59c-5.17,7.24 -16.24,19.52 -25.13,25.25c9.41,-2 10.19,-2.35 18.62,-5.77a149.18,149.18 0 0 0 12.83,-15c6.27,-8.77 10.89,-17.82 15.34,-26.57c6.91,-13.53 13.43,-26.3 24.69,-34.2l1.51,-1.08l0.12,-1.86c1.31,-21.58 -0.83,-40.67 -6.38,-56.72c-11.62,-68.65 -37.25,-101.1 -88.13,-111.04l-0.04,0.01zm65.92,-157.7c2,3.2 3.84,4.75 6.4,7.4c5.82,6 6.3,13.65 4,18.38c-3,6.33 -8.48,11.45 -13.61,7.7c6.7,-2.3 1.44,-4.43 -0.22,-5.07c-3.46,-1.32 -7.66,-2.78 -9.14,1.74c-0.54,1.6 -0.42,2 1,3a6.15,6.15 0 0 0 4.6,1c-0.38,1.56 -2.09,2.61 -4.68,1.77c-7.48,-2 -6.11,-10.2 -1.5,-12.87a3.06,3.06 0 0 1 2.6,-0.66c2.65,0.67 4,0.11 5.21,-1.09a18,18 0 0 1 -2.49,-0.87a16.23,16.23 0 0 0 -8.83,-2.2c-2,0.05 -2.62,0.55 -3.76,2.13c-5.1,7.09 -2.73,13.3 -1.2,15.55c2.93,4.32 9,4.72 14,4c6.12,-0.88 10,1.08 11,5.58c1.24,5.34 -1.76,5.32 -3.61,17.2a124.38,124.38 0 0 0 -1.19,12.91c-0.49,10.42 0.84,22.25 6.71,33.83c3.52,6.95 1.33,14.24 -9.93,7.27c-6.23,-13.5 -11.36,-24.7 -15.5,-35.6a25,25 0 0 0 12.94,3.12c-4.83,-7.13 -10,-10.19 -15.43,-9.84c-2.37,-6.67 -4.37,-13.38 -6.22,-20.48c-5.22,-20.64 -9.34,-37 -22.62,-54.9a50.34,50.34 0 0 0 -24.07,-17.91c10.76,-22.09 23.28,-29.62 34.82,-28.41c7.79,0.82 14.19,4.81 20,11.32c8.54,9.45 14.18,25.36 20.72,36zm-366.9,97.28c-3.26,-11.3 -7.12,-23.15 -11.2,-35.7l-2.9,-8.93c-33.29,-102.8 -26.78,-188 19.91,-260.44a277.89,277.89 0 0 1 95.82,-91.36c94.53,-54.38 209.17,-43.29 299.2,28.93a258.68,258.68 0 0 1 34.32,32.65c-41.54,18.38 -69.32,43.66 -99.39,82.41a163.74,163.74 0 0 0 -17.51,-10.76c0.22,-0.42 0.44,-0.85 0.7,-1.35c1.37,-2.63 3.42,-6.34 6,-10.76a323.22,323.22 0 0 1 20.6,-31.23c2,-2.72 4.22,-5.35 6.29,-8s4.31,-5.07 6.46,-7.44s4.29,-4.59 6.39,-6.65l6,-5.64l5.41,-4.41a52,52 0 0 1 4.38,-3.16l3.9,-2.66l-4.07,2.4a51.8,51.8 0 0 0 -4.59,2.87l-5.75,4.09l-6.47,5.28c-2.25,1.92 -4.49,4.1 -6.89,6.28s-4.63,4.67 -7,7.08s-4.63,5 -6.88,7.67a326.79,326.79 0 0 0 -23,30.26c-2.88,4.32 -5.22,8 -6.8,10.57l-1,1.61a164.36,164.36 0 0 0 -16,-6.57c0.91,-2.85 2.39,-7.4 4.35,-13.12c3.38,-9.78 8.15,-22.75 13.5,-35.5c2.66,-6.38 5.5,-12.68 8.28,-18.54l4.16,-8.36c1.41,-2.61 2.75,-5.08 4,-7.36s2.55,-4.26 3.61,-6.08s2.11,-3.34 3,-4.59l2.69,-3.95l-2.94,3.76c-0.93,1.2 -2.09,2.63 -3.26,4.39s-2.62,3.68 -4,5.87l-4.58,7.16l-4.73,8.12c-3.17,5.7 -6.45,11.85 -9.54,18.08c-6.21,12.46 -11.87,25.19 -15.93,34.83c-2.39,5.7 -4.23,10.28 -5.34,13.11a162.59,162.59 0 0 0 -19.46,-4.63c1.53,-8.53 5.51,-30.36 10.19,-52.14c3,-13.93 6.26,-27.81 9.09,-38.11c1.39,-5.16 2.69,-9.41 3.67,-12.38l1.56,-4.65s-0.67,1.65 -1.86,4.54s-2.74,7.08 -4.47,12.16c-3.5,10.13 -7.67,23.82 -11.53,37.57c-6.17,21.82 -11.64,43.78 -13.65,52a164.69,164.69 0 0 0 -18.61,-1.33l-1.47,-112.85l-5.54,112.83a165.6,165.6 0 0 0 -20.69,1.85l-20.37,-111.75l13.43,112.95a161.56,161.56 0 0 0 -21.35,5.8l-37.67,-108.53l31,111a162.8,162.8 0 0 0 -18.57,8.67l-57.57,-98.14l51.41,101.67a164.64,164.64 0 0 0 -17.36,12.16l-71.05,-84.45l65.6,89a163.85,163.85 0 0 0 -15.03,14.93l-83.33,-63.77l78.72,69.17a164.16,164.16 0 0 0 -13.18,18.73l-89.21,-42.24l85.6,48.42a163.3,163.3 0 0 0 -9.78,21.47l-87.9,-20l85.58,26.79a162.76,162.76 0 0 0 -5.45,22.27l-85,-2.81l84,10a165.15,165.15 0 0 0 -1.36,20.8c0,0.82 0.09,1.68 0.11,2.51l-75,12.82l75.33,-5.64a159.86,159.86 0 0 0 3.87,22.73l-65.53,33.11l67.34,-26.08a240.87,240.87 0 0 0 8.52,25.16l-55.57,51l71.76,-55.95l10.6,-8.52c4.88,-4.41 8.27,1.69 12.94,6.5l-49.42,74.84c-1.07,1.8 -12,14.73 -17.8,15.72c-20.39,3.47 -42.68,9.82 -55.78,24.07c0.71,-17.65 -4.44,-38.41 -8.96,-54.13zm120.78,69.85c23.07,33 19.8,66 16.34,100.95c-4.18,42.17 -8.49,85.61 30.53,133.71c-22.23,-18.48 -52.85,-58.64 -48.33,-130.4c2.93,-46.45 -11.77,-83.38 -39.32,-98.8a52.07,52.07 0 0 0 -25.48,-6.82a50.47,50.47 0 0 0 -29.19,9.43c-33.64,23.67 -20.82,74.69 -9.49,104.34c-20.4,-27.5 -28.7,-62.46 -20.33,-91.24c7.73,-26.6 28.23,-44 57.73,-49.08c19.57,-3.34 47.19,-1.22 67.54,27.9l0,0.01zm26,-99.26c-0.88,5.51 -6.17,13.28 -10.48,15.91c-1.92,1.16 -3.87,2.4 -5.84,3.67c-3.56,2.31 -5.07,5.37 -2.14,9.8l3.35,5.05c-6,6.76 -15,19.06 -37.62,19.36l48.27,-76.12c7.09,7.25 5.67,14.4 4.43,22.33l0.03,0zm-6.71,-42.53c-6.31,-8.74 -10.81,-32.76 -10.81,-46.28a112.32,112.32 0 0 1 185.19,-85.48a27.58,27.58 0 0 1 7.43,0.33l0.63,0.21a0.8,0.8 0 0 0 0,-0.11c8,1.65 14.08,7.11 18.8,15.44c6.14,10.84 10.55,34.2 13.67,53.1c-1,-1.27 -1.93,-2.52 -3,-3.71c-6.75,-7.49 -14.8,-12.77 -25,-13.85c-21.14,-2.21 -35.23,17.1 -43.27,34.08a64.06,64.06 0 0 0 -39.16,5.3c-17.64,8.49 -27.58,23.9 -31.37,40.8c-13.54,1.7 -25.06,13.38 -29.22,28.75l-24.14,11.9c-0.03,-18.01 -5.4,-32.4 -19.78,-40.48l0.03,0zm74.46,38a130.45,130.45 0 0 0 -22.36,-0.3l0,0c3.76,-9.63 13.46,-13.42 20.54,-7.4a74,74 0 0 0 1.79,7.69l0.03,0.01zm-22.85,18.18c-11.12,1.09 -22.17,5.08 -33.14,12.23c0,0 -3.6,-4 -2.5,-5.43c3.06,-4.1 20.46,-11.88 32.59,-13.08c8.83,-0.87 20.2,-0.53 29.11,1.79a70.07,70.07 0 0 0 6.78,9.25a72.53,72.53 0 0 0 -32.84,-4.76zm31.46,-16.52c-9.14,-25.52 -3.55,-60 24.78,-73.65a57.58,57.58 0 0 1 24.6,-5.63c13.47,0 27.18,5.07 36.68,17.91c12.36,16.72 16.12,31.59 21.34,52.2c5.7,22.59 14.13,41.42 26.33,67.57c2.2,4.7 2.64,8.82 1.15,10.73c-1.36,1.75 -4.83,2.24 -9.51,1.35l0,0c-73.3,-13.9 -113.13,-36.29 -125.37,-70.48zm-48.5,-19.17c5.12,-13.66 15.52,-25.5 29.32,-30.17c0.1,-0.32 0.2,-0.64 0.32,-1a70.71,70.71 0 0 1 18.87,-29.4c-6.83,-2.83 -27.7,-3.14 -39.17,12.12c-18.73,-31.54 -23.55,-89.26 34.79,-116.72a101,101 0 0 0 -78.17,98.4c0,12 3.12,27.32 8.26,38.35c11.41,7.56 17.72,18.48 20.52,31l5.26,-2.58zm173.46,-39.94c-2.62,2.6 -7.53,9.18 -7.47,13.31c5.15,-8.73 12.37,-8.17 16.57,-7.61c5.58,0.74 9.61,3.34 13.67,6.88a11.87,11.87 0 0 0 -3,-5.71c-2.84,-2.94 -5.21,-5.13 -7.41,-8.7c-4.68,-7.58 -11.28,-24.34 -18.74,-31.61c4.92,10.83 11.4,28.44 6.38,33.44z" class="d"/>
   </g>
  </g>
 </g>
</svg>